# xmcd
#
# Track frame offsets:
#	183
#	13550
#	36938
#	51005
#	62550
#	75035
#	94288
#	106400
#	120055
#	136325
#	153745
#	165988
#
# Disc length: 2414
#
# Revision: 5
# Processed by: cddbd v1.5.1PL0 Copyright (c) Steve Scherf et al.
# Submitted via: CDValet v3.31 - Copyright (c) 1997 Greg Leichner
# Normalized: r4:DSETVAR1
#
DISCID=84096c0c
DTITLE=Various Artist - Soul Hits Of The 70s Didn't It Blow Your Mind! Vol. 1
DYEAR=1900
DGENRE=
TTITLE0=Friends Of Distinction - Grazing In The Grass
TTITLE1=Edwin Hawkin's Singers - Oh Happy Day
TTITLE2=The Winstons - Color Him Father
TTITLE3=The Honey Cone - While You're Out Looking For Sugar
TTITLE4=R. B. Greaves - Take A Letter Maria
TTITLE5=Friends Of Distinction - Going In Circles
TTITLE6=The Glass House - Crumbs Off The Table
TTITLE7=The Flaming Ember - Mind Body And Soul
TTITLE8=Eddie Holman - Hey There Lonely Girl
TTITLE9=Brook Benton - Rainy Night In Georgia
TTITLE10=Chairmen Of The Board - Give Me Just A Little More Time
TTITLE11=The Delfonics - Didn't I (Blow Your Mind This Time)
EXTD=
EXTT0=The Friends of Distinction
EXTT1=The Edwin Hawkins' Singers
EXTT2=The Winstons
EXTT3=The Honey Cone
EXTT4=R. B. Graves
EXTT5=The Friends of Distinction
EXTT6=The Glass House
EXTT7=the Flaming Ember
EXTT8=Eddie Holman
EXTT9=Brook Benton
EXTT10=Chairmen Of The Board
EXTT11=The Delfonics
PLAYORDER=
